<svg xmlns="http://www.w3.org/2000/svg" xmlns:xlink="http://www.w3.org/1999/xlink" width="500" zoomAndPan="magnify" viewBox="0 0 375 374.999991" height="500" preserveAspectRatio="xMidYMid meet" version="1.0"><defs><g/><clipPath id="58f24f4ff3"><path d="M 158 165.613281 L 260.90625 165.613281 L 260.90625 209.386719 L 158 209.386719 Z M 158 165.613281 " clip-rule="nonzero"/></clipPath><clipPath id="a61a1eea52"><path d="M 190.085938 165.613281 L 254.3125 165.613281 C 256.460938 165.613281 258.445312 166.765625 259.511719 168.636719 C 260.578125 170.503906 260.558594 172.796875 259.460938 174.648438 L 244.242188 200.351562 C 240.925781 205.953125 234.898438 209.386719 228.390625 209.386719 L 164.164062 209.386719 C 162.015625 209.386719 160.03125 208.234375 158.964844 206.363281 C 157.898438 204.496094 157.917969 202.203125 159.015625 200.351562 L 174.234375 174.648438 C 177.550781 169.046875 183.578125 165.613281 190.085938 165.613281 Z M 190.085938 165.613281 " clip-rule="nonzero"/></clipPath></defs><g clip-path="url(#58f24f4ff3)"><g clip-path="url(#a61a1eea52)"><path fill="#000000" d="M 153.664062 165.613281 L 264.8125 165.613281 L 264.8125 209.386719 L 153.664062 209.386719 Z M 153.664062 165.613281 " fill-opacity="1" fill-rule="nonzero"/></g></g><g fill="#000000" fill-opacity="1"><g transform="translate(72.023781, 202.018808)"><g><path d="M 22.296875 -20.53125 L 14.515625 -20.53125 L 14.515625 0 L 7.96875 0 L 7.96875 -20.53125 L 0.265625 -20.53125 L 0.265625 -25.84375 L 22.296875 -25.84375 Z M 22.296875 -20.53125 "/></g></g></g><g fill="#000000" fill-opacity="1"><g transform="translate(92.445167, 202.018808)"><g><path d="M 11.765625 -20.09375 C 15.003906 -20.09375 17.617188 -19.160156 19.609375 -17.296875 C 21.597656 -15.441406 22.59375 -12.988281 22.59375 -9.9375 C 22.59375 -6.894531 21.597656 -4.441406 19.609375 -2.578125 C 17.617188 -0.710938 15.003906 0.21875 11.765625 0.21875 C 8.492188 0.21875 5.863281 -0.710938 3.875 -2.578125 C 1.882812 -4.441406 0.890625 -6.894531 0.890625 -9.9375 C 0.890625 -12.988281 1.882812 -15.441406 3.875 -17.296875 C 5.863281 -19.160156 8.492188 -20.09375 11.765625 -20.09375 Z M 11.765625 -15.03125 C 10.429688 -15.03125 9.351562 -14.550781 8.53125 -13.59375 C 7.707031 -12.632812 7.296875 -11.394531 7.296875 -9.875 C 7.296875 -8.332031 7.707031 -7.085938 8.53125 -6.140625 C 9.351562 -5.191406 10.429688 -4.71875 11.765625 -4.71875 C 13.066406 -4.71875 14.128906 -5.191406 14.953125 -6.140625 C 15.773438 -7.085938 16.1875 -8.332031 16.1875 -9.875 C 16.1875 -11.394531 15.773438 -12.632812 14.953125 -13.59375 C 14.128906 -14.550781 13.066406 -15.03125 11.765625 -15.03125 Z M 11.765625 -15.03125 "/></g></g></g><g fill="#000000" fill-opacity="1"><g transform="translate(113.824961, 202.018808)"><g><path d="M 22.5625 -27.34375 L 22.5625 0 L 16.1875 0 L 16.1875 -2.609375 C 14.726562 -0.691406 12.734375 0.265625 10.203125 0.265625 C 7.410156 0.265625 5.164062 -0.679688 3.46875 -2.578125 C 1.769531 -4.472656 0.921875 -6.957031 0.921875 -10.03125 C 0.921875 -13.070312 1.753906 -15.515625 3.421875 -17.359375 C 5.097656 -19.203125 7.3125 -20.125 10.0625 -20.125 C 12.6875 -20.125 14.726562 -19.164062 16.1875 -17.25 L 16.1875 -27.34375 Z M 8.546875 -6.125 C 9.359375 -5.164062 10.425781 -4.6875 11.75 -4.6875 C 13.082031 -4.6875 14.15625 -5.164062 14.96875 -6.125 C 15.78125 -7.082031 16.1875 -8.332031 16.1875 -9.875 C 16.1875 -11.394531 15.78125 -12.632812 14.96875 -13.59375 C 14.15625 -14.550781 13.082031 -15.03125 11.75 -15.03125 C 10.425781 -15.03125 9.359375 -14.554688 8.546875 -13.609375 C 7.734375 -12.671875 7.316406 -11.425781 7.296875 -9.875 C 7.316406 -8.332031 7.734375 -7.082031 8.546875 -6.125 Z M 8.546875 -6.125 "/></g></g></g><g fill="#000000" fill-opacity="1"><g transform="translate(137.011004, 202.018808)"><g><path d="M 11.765625 -20.09375 C 15.003906 -20.09375 17.617188 -19.160156 19.609375 -17.296875 C 21.597656 -15.441406 22.59375 -12.988281 22.59375 -9.9375 C 22.59375 -6.894531 21.597656 -4.441406 19.609375 -2.578125 C 17.617188 -0.710938 15.003906 0.21875 11.765625 0.21875 C 8.492188 0.21875 5.863281 -0.710938 3.875 -2.578125 C 1.882812 -4.441406 0.890625 -6.894531 0.890625 -9.9375 C 0.890625 -12.988281 1.882812 -15.441406 3.875 -17.296875 C 5.863281 -19.160156 8.492188 -20.09375 11.765625 -20.09375 Z M 11.765625 -15.03125 C 10.429688 -15.03125 9.351562 -14.550781 8.53125 -13.59375 C 7.707031 -12.632812 7.296875 -11.394531 7.296875 -9.875 C 7.296875 -8.332031 7.707031 -7.085938 8.53125 -6.140625 C 9.351562 -5.191406 10.429688 -4.71875 11.765625 -4.71875 C 13.066406 -4.71875 14.128906 -5.191406 14.953125 -6.140625 C 15.773438 -7.085938 16.1875 -8.332031 16.1875 -9.875 C 16.1875 -11.394531 15.773438 -12.632812 14.953125 -13.59375 C 14.128906 -14.550781 13.066406 -15.03125 11.765625 -15.03125 Z M 11.765625 -15.03125 "/></g></g></g><g fill="#ffffff" fill-opacity="1"><g transform="translate(173.954583, 202.012935)"><g><path d="M 9.140625 -5.484375 L 20.09375 -5.484375 L 20.09375 0 L 2.578125 0 L 2.578125 -25.796875 L 9.140625 -25.796875 Z M 9.140625 -5.484375 "/></g></g></g><g fill="#ffffff" fill-opacity="1"><g transform="translate(192.496005, 202.012935)"><g><path d="M 3.328125 -28 C 3.960938 -28.625 4.769531 -28.9375 5.75 -28.9375 C 6.726562 -28.9375 7.53125 -28.625 8.15625 -28 C 8.789062 -27.375 9.109375 -26.566406 9.109375 -25.578125 C 9.109375 -24.597656 8.789062 -23.785156 8.15625 -23.140625 C 7.53125 -22.503906 6.726562 -22.1875 5.75 -22.1875 C 4.769531 -22.1875 3.960938 -22.503906 3.328125 -23.140625 C 2.703125 -23.785156 2.390625 -24.597656 2.390625 -25.578125 C 2.390625 -26.566406 2.703125 -27.375 3.328125 -28 Z M 8.890625 0 L 2.546875 0 L 2.546875 -19.859375 L 8.890625 -19.859375 Z M 8.890625 0 "/></g></g></g><g fill="#ffffff" fill-opacity="1"><g transform="translate(201.858766, 202.012935)"><g><path d="M 9.65625 -20.15625 C 12.582031 -20.15625 15.3125 -19.40625 17.84375 -17.90625 L 15.671875 -13.78125 C 13.210938 -15.113281 11.125 -15.78125 9.40625 -15.78125 C 8.101562 -15.78125 7.453125 -15.320312 7.453125 -14.40625 C 7.453125 -13.914062 7.804688 -13.503906 8.515625 -13.171875 C 9.222656 -12.835938 10.09375 -12.535156 11.125 -12.265625 C 12.15625 -12.003906 13.179688 -11.671875 14.203125 -11.265625 C 15.222656 -10.859375 16.085938 -10.210938 16.796875 -9.328125 C 17.515625 -8.441406 17.875 -7.359375 17.875 -6.078125 C 17.875 -4.085938 17.097656 -2.53125 15.546875 -1.40625 C 14.003906 -0.289062 11.992188 0.265625 9.515625 0.265625 C 5.992188 0.265625 3.019531 -0.671875 0.59375 -2.546875 L 2.609375 -6.59375 C 4.953125 -4.945312 7.300781 -4.125 9.65625 -4.125 C 11.101562 -4.125 11.828125 -4.578125 11.828125 -5.484375 C 11.828125 -6.003906 11.476562 -6.4375 10.78125 -6.78125 C 10.082031 -7.125 9.226562 -7.429688 8.21875 -7.703125 C 7.207031 -7.972656 6.195312 -8.3125 5.1875 -8.71875 C 4.1875 -9.125 3.332031 -9.753906 2.625 -10.609375 C 1.925781 -11.472656 1.578125 -12.554688 1.578125 -13.859375 C 1.578125 -15.847656 2.328125 -17.394531 3.828125 -18.5 C 5.328125 -19.601562 7.269531 -20.15625 9.65625 -20.15625 Z M 9.65625 -20.15625 "/></g></g></g><g fill="#ffffff" fill-opacity="1"><g transform="translate(218.667667, 202.012935)"><g><path d="M 14.109375 -5.484375 L 15.375 -1.0625 C 13.820312 -0.15625 12.050781 0.296875 10.0625 0.296875 C 8.09375 0.296875 6.5 -0.25 5.28125 -1.34375 C 4.070312 -2.4375 3.46875 -3.992188 3.46875 -6.015625 L 3.46875 -14.78125 L 0.703125 -14.78125 L 0.703125 -18.953125 L 3.46875 -18.953125 L 3.46875 -24.46875 L 9.796875 -24.46875 L 9.796875 -18.984375 L 15 -18.984375 L 15 -14.78125 L 9.796875 -14.78125 L 9.796875 -7 C 9.796875 -6.238281 9.945312 -5.679688 10.25 -5.328125 C 10.5625 -4.972656 11.023438 -4.804688 11.640625 -4.828125 C 12.234375 -4.828125 13.054688 -5.046875 14.109375 -5.484375 Z M 14.109375 -5.484375 "/></g></g></g><g fill="#000000" fill-opacity="1"><g transform="translate(91.435327, 219.848176)"><g><path d="M 5.945312 -2.164062 C 5.945312 -2.714844 5.808594 -3.183594 5.546875 -3.550781 C 5.269531 -3.917969 4.902344 -4.171875 4.457031 -4.296875 C 4.71875 -4.410156 4.949219 -4.617188 5.121094 -4.925781 C 5.203125 -5.0625 5.257812 -5.203125 5.304688 -5.351562 C 5.351562 -5.5 5.375 -5.707031 5.375 -5.96875 C 5.375 -6.222656 5.304688 -6.484375 5.191406 -6.738281 C 4.847656 -7.4375 4.101562 -7.789062 2.96875 -7.789062 L 0.859375 -7.789062 L 0.859375 0 L 3.242188 0 C 4.03125 0 4.664062 -0.171875 5.144531 -0.539062 C 5.386719 -0.722656 5.578125 -0.960938 5.730469 -1.261719 C 5.867188 -1.546875 5.945312 -1.84375 5.945312 -2.164062 Z M 4.570312 -5.84375 C 4.570312 -5.417969 4.445312 -5.109375 4.191406 -4.902344 C 3.941406 -4.699219 3.609375 -4.59375 3.195312 -4.59375 L 1.660156 -4.59375 L 1.660156 -7.023438 L 2.96875 -7.023438 C 4.03125 -7.023438 4.570312 -6.621094 4.570312 -5.84375 Z M 5.144531 -2.324219 C 5.144531 -1.855469 4.984375 -1.476562 4.664062 -1.191406 C 4.355469 -0.90625 3.953125 -0.769531 3.472656 -0.769531 L 1.660156 -0.769531 L 1.660156 -3.792969 L 3.597656 -3.792969 C 4 -3.792969 4.355469 -3.65625 4.664062 -3.378906 C 4.800781 -3.253906 4.914062 -3.105469 5.007812 -2.933594 C 5.097656 -2.75 5.144531 -2.554688 5.144531 -2.324219 Z M 5.144531 -2.324219 "/></g></g></g><g fill="#000000" fill-opacity="1"><g transform="translate(99.272335, 219.848176)"><g><path d="M 3.871094 -3.667969 L 6.816406 -7.789062 L 5.796875 -7.789062 L 3.472656 -4.457031 L 1.144531 -7.789062 L 0.113281 -7.789062 L 3.070312 -3.65625 L 3.070312 0 L 3.871094 0 Z M 3.871094 -3.667969 "/></g></g></g><g fill="#000000" fill-opacity="1"><g transform="translate(107.865521, 219.848176)"><g/></g></g><g fill="#000000" fill-opacity="1"><g transform="translate(112.620551, 219.848176)"><g><path d="M 3.65625 0.46875 L 7.183594 -7.789062 L 6.3125 -7.789062 L 3.65625 -1.511719 L 0.984375 -7.789062 L 0.113281 -7.789062 Z M 3.65625 0.46875 "/></g></g></g><g fill="#000000" fill-opacity="1"><g transform="translate(121.580367, 219.848176)"><g><path d="M 1.660156 0 L 1.660156 -7.789062 L 0.859375 -7.789062 L 0.859375 0 Z M 1.660156 0 "/></g></g></g><g fill="#000000" fill-opacity="1"><g transform="translate(125.762543, 219.848176)"><g><path d="M 3.011719 -3.667969 C 4.019531 -3.425781 4.707031 -3.164062 5.074219 -2.863281 C 5.328125 -2.65625 5.453125 -2.394531 5.453125 -2.074219 C 5.453125 -1.753906 5.386719 -1.488281 5.246094 -1.304688 C 4.902344 -0.824219 4.285156 -0.585938 3.414062 -0.585938 C 2.199219 -0.585938 1.511719 -0.996094 1.363281 -1.820312 L 0.425781 -1.820312 C 0.699219 -0.503906 1.695312 0.148438 3.414062 0.148438 C 4.183594 0.148438 4.824219 -0.0117188 5.339844 -0.355469 C 5.957031 -0.757812 6.277344 -1.351562 6.277344 -2.132812 C 6.277344 -2.773438 6.027344 -3.265625 5.523438 -3.609375 C 5.167969 -3.859375 4.59375 -4.089844 3.804688 -4.296875 C 3 -4.503906 2.484375 -4.675781 2.246094 -4.800781 C 1.71875 -5.0625 1.453125 -5.429688 1.464844 -5.910156 C 1.464844 -6.164062 1.511719 -6.382812 1.625 -6.542969 C 1.925781 -6.988281 2.453125 -7.21875 3.207031 -7.21875 C 4.273438 -7.21875 4.878906 -6.875 5.042969 -6.210938 L 5.910156 -6.210938 C 5.625 -7.332031 4.71875 -7.90625 3.207031 -7.90625 C 2.519531 -7.90625 1.914062 -7.722656 1.410156 -7.355469 C 0.894531 -6.988281 0.628906 -6.449219 0.628906 -5.71875 C 0.628906 -4.71875 1.433594 -4.03125 3.011719 -3.667969 Z M 3.011719 -3.667969 "/></g></g></g><g fill="#000000" fill-opacity="1"><g transform="translate(134.000554, 219.848176)"><g><path d="M 1.660156 0 L 1.660156 -3.484375 L 5.203125 -3.484375 L 5.203125 0 L 6.003906 0 L 6.003906 -7.789062 L 5.203125 -7.789062 L 5.203125 -4.285156 L 1.660156 -4.285156 L 1.660156 -7.789062 L 0.859375 -7.789062 L 0.859375 0 Z M 1.660156 0 "/></g></g></g><g fill="#000000" fill-opacity="1"><g transform="translate(142.524998, 219.848176)"><g><path d="M 2.121094 -2.863281 L 3.539062 -6.449219 L 4.949219 -2.863281 Z M 6.953125 0 L 3.539062 -8.328125 L 0.113281 0 L 0.984375 0 L 1.820312 -2.121094 L 5.246094 -2.121094 L 6.082031 0 Z M 6.953125 0 "/></g></g></g><g fill="#000000" fill-opacity="1"><g transform="translate(151.255669, 219.848176)"><g><path d="M 1.660156 -0.800781 L 1.660156 -7.789062 L 0.859375 -7.789062 L 0.859375 0 L 4.445312 0 L 4.445312 -0.800781 Z M 1.660156 -0.800781 "/></g></g></g><g fill="#000000" fill-opacity="1"><g transform="translate(157.591789, 219.848176)"><g/></g></g><g fill="#000000" fill-opacity="1"><g transform="translate(162.346822, 219.848176)"><g><path d="M 7.046875 0.628906 L 8.855469 -7.789062 L 8.042969 -7.789062 L 6.828125 -2.132812 L 4.492188 -8.25 L 2.140625 -2.132812 L 0.941406 -7.789062 L 0.113281 -7.789062 L 1.9375 0.628906 L 4.492188 -6.152344 Z M 7.046875 0.628906 "/></g></g></g><g fill="#000000" fill-opacity="1"><g transform="translate(172.97938, 219.848176)"><g><path d="M 5.488281 0 L 5.488281 -0.746094 L 1.660156 -0.746094 L 1.660156 -3.515625 L 5.375 -3.515625 L 5.375 -4.273438 L 1.660156 -4.273438 L 1.660156 -7.046875 L 5.488281 -7.046875 L 5.488281 -7.789062 L 0.859375 -7.789062 L 0.859375 0 Z M 5.488281 0 "/></g></g></g><g fill="#000000" fill-opacity="1"><g transform="translate(180.988246, 219.848176)"><g><path d="M 6.910156 -3.894531 C 6.910156 -4.457031 6.792969 -4.972656 6.585938 -5.453125 C 6.382812 -5.933594 6.09375 -6.347656 5.738281 -6.691406 C 5.375 -7.035156 4.949219 -7.296875 4.46875 -7.492188 C 3.976562 -7.6875 3.449219 -7.789062 2.898438 -7.789062 L 0.859375 -7.789062 L 0.859375 0 L 2.898438 0 C 3.449219 0 3.976562 -0.0898438 4.46875 -0.285156 C 4.949219 -0.480469 5.375 -0.757812 5.738281 -1.101562 C 6.09375 -1.445312 6.382812 -1.84375 6.585938 -2.324219 C 6.792969 -2.808594 6.910156 -3.324219 6.910156 -3.894531 Z M 6.128906 -3.894531 C 6.128906 -3 5.808594 -2.257812 5.191406 -1.671875 C 4.570312 -1.089844 3.816406 -0.800781 2.921875 -0.800781 L 1.660156 -0.800781 L 1.660156 -6.988281 L 2.921875 -6.988281 C 3.816406 -6.988281 4.570312 -6.691406 5.191406 -6.117188 C 5.808594 -5.523438 6.128906 -4.777344 6.128906 -3.894531 Z M 6.128906 -3.894531 "/></g></g></g><g fill="#000000" fill-opacity="1"><g transform="translate(190.074093, 219.848176)"><g><path d="M 1.660156 0 L 1.660156 -7.789062 L 0.859375 -7.789062 L 0.859375 0 Z M 1.660156 0 "/></g></g></g><g fill="#000000" fill-opacity="1"><g transform="translate(194.256268, 219.848176)"><g><path d="M 8.042969 0 L 8.855469 0 L 7.046875 -8.304688 L 4.492188 -1.636719 L 1.9375 -8.304688 L 0.113281 0 L 0.941406 0 L 2.140625 -5.546875 L 4.492188 0.457031 L 6.828125 -5.546875 Z M 8.042969 0 "/></g></g></g><g fill="#000000" fill-opacity="1"><g transform="translate(204.888831, 219.848176)"><g><path d="M 1.660156 -3.859375 L 1.660156 -7.023438 L 3.472656 -7.023438 C 3.941406 -7.023438 4.320312 -6.875 4.605469 -6.585938 C 4.878906 -6.289062 5.03125 -5.921875 5.03125 -5.464844 C 5.03125 -4.996094 4.878906 -4.617188 4.582031 -4.308594 C 4.285156 -4.011719 3.917969 -3.859375 3.472656 -3.859375 Z M 5.832031 -5.441406 C 5.832031 -6.128906 5.578125 -6.691406 5.097656 -7.136719 C 4.617188 -7.574219 4.042969 -7.789062 3.355469 -7.789062 L 0.859375 -7.789062 L 0.859375 0 L 1.660156 0 L 1.660156 -3.082031 L 3.355469 -3.082031 C 4.042969 -3.082031 4.628906 -3.300781 5.097656 -3.734375 C 5.578125 -4.191406 5.832031 -4.753906 5.832031 -5.441406 Z M 5.832031 -5.441406 "/></g></g></g><g fill="#000000" fill-opacity="1"><g transform="translate(212.611273, 219.848176)"><g><path d="M 2.121094 -2.863281 L 3.539062 -6.449219 L 4.949219 -2.863281 Z M 6.953125 0 L 3.539062 -8.328125 L 0.113281 0 L 0.984375 0 L 1.820312 -2.121094 L 5.246094 -2.121094 L 6.082031 0 Z M 6.953125 0 "/></g></g></g><g fill="#000000" fill-opacity="1"><g transform="translate(221.341944, 219.848176)"><g><path d="M 1.660156 -0.800781 L 1.660156 -7.789062 L 0.859375 -7.789062 L 0.859375 0 L 4.445312 0 L 4.445312 -0.800781 Z M 1.660156 -0.800781 "/></g></g></g><g fill="#000000" fill-opacity="1"><g transform="translate(227.678064, 219.848176)"><g><path d="M 2.121094 -2.863281 L 3.539062 -6.449219 L 4.949219 -2.863281 Z M 6.953125 0 L 3.539062 -8.328125 L 0.113281 0 L 0.984375 0 L 1.820312 -2.121094 L 5.246094 -2.121094 L 6.082031 0 Z M 6.953125 0 "/></g></g></g></svg>